# xmcd
#
# Track frame offsets:
#	150
#	11177
#	24659
#	34600
#	46087
#	56797
#	74386
#	86572
#	98387
#	113956
#	123154
#	135736
#	155192
#	164822
#	181575
#
# Disc length: 2567 seconds
#
# Revision: 1
# Processed by: cddbd v1.5.2PL0 Copyright (c) Steve Scherf et al.
# Submitted via: audiograbber 1.83.01
#
DISCID=c60a050f
DTITLE=Various Artist - King Of The Road
DYEAR=1900
DGENRE=Country
TTITLE0=Bobby Bond - King Of The Road
TTITLE1=Faron Young - Four In The Morning
TTITLE2=Johnny Cash  - Get Rythm
TTITLE3=Jim Reeves - Mexican Joe
TTITLE4=Dave Dudley - Six Days On The Road
TTITLE5=Johnny Doe - A Boy Named Sue
TTITLE6=Johnny Cash - I Walk The Line
TTITLE7=Jim Reeves - Drinking Tequila
TTITLE8=Henson Cargill - Lucille
TTITLE9=Dave Dudley - Truck Drivin Man
TTITLE10=Johnny Cash - Folsom Prison Blues
TTITLE11=Johnny Paycheck - Help Me Make It Through The Night
TTITLE12=Dave Dudley - Truck Drivin Son Of A Gun
TTITLE13=Johnny Paycheck - Me And Bobby McGee
TTITLE14=Jim Reeves - Penny Candy
EXTD=
EXTT0=
EXTT1=
EXTT2=
EXTT3=
EXTT4=
EXTT5=
EXTT6=
EXTT7=
EXTT8=
EXTT9=
EXTT10=
EXTT11=
EXTT12=
EXTT13=
EXTT14=
PLAYORDER=
